<svg xmlns="http://www.w3.org/2000/svg" width="155.905" height="179.002" viewBox="0 0 155.905 179.002">
  <g id="Grupo_333" data-name="Grupo 333" transform="translate(-40 -8)">
    <path id="Trazado_6211" data-name="Trazado 6211" d="M207.1,67.549A11.549,11.549,0,1,0,195.548,79.1,11.56,11.56,0,0,0,207.1,67.549Zm-17.323,0a5.774,5.774,0,1,1,5.774,5.774A5.78,5.78,0,0,1,189.774,67.549Z" transform="translate(-92.032 -30.677)" fill="#fff"/>
    <path id="Trazado_6212" data-name="Trazado 6212" d="M275.548,79.1A11.549,11.549,0,1,0,264,67.549,11.56,11.56,0,0,0,275.548,79.1Zm0-17.323a5.774,5.774,0,1,1-5.774,5.774A5.78,5.78,0,0,1,275.548,61.774Z" transform="translate(-143.16 -30.677)" fill="#fff"/>
    <path id="Trazado_6213" data-name="Trazado 6213" d="M248,120h5.774v5.774H248Z" transform="translate(-132.935 -71.58)" fill="#fff"/>
    <path id="Trazado_6214" data-name="Trazado 6214" d="M239.1,169.323v-5.774h5.774v-5.774H239.1V152h-5.774v5.774h-5.774V152h-5.774v5.774H216v5.774h5.774v5.774h5.774v-5.774h5.774v5.774Z" transform="translate(-112.483 -92.032)" fill="#fff"/>
    <path id="Trazado_6215" data-name="Trazado 6215" d="M195.9,25.816V17.233a9.233,9.233,0,0,0-18.287-1.81l-.808,4.042-.762-.762a6.972,6.972,0,0,0-11.9,4.928,17.928,17.928,0,0,0,3.026,9.989l2.639,3.958-2.694,21.541L155.881,81.6a22.6,22.6,0,0,0-4.7,2.431,15.251,15.251,0,0,0-5.231-.961H136.97a20.135,20.135,0,0,0,5.953-11.93l.869-6.941,2.474-2.477A31.466,31.466,0,0,0,124.018,8H111.889A31.468,31.468,0,0,0,89.635,61.718L92.11,64.2l.869,6.941a20.135,20.135,0,0,0,5.953,11.93H89.953a15.253,15.253,0,0,0-8.491,2.572c-.292.2-.557.419-.831.632l-6.248-2.486A13.986,13.986,0,0,0,57.447,90.8l-.661,1.319a22.4,22.4,0,0,0-2.35,9.963,12.616,12.616,0,0,0,2.362,7.342l-7.252,14.5a8.276,8.276,0,0,0,1.571,9.6l-5.081,20.32A22.756,22.756,0,0,0,40,169.182v8.586a9.233,9.233,0,0,0,18.287,1.813l.808-4.045.765.765a6.972,6.972,0,0,0,11.9-4.931,17.928,17.928,0,0,0-3.026-9.989l-2.639-3.958,2.694-21.541L74.7,124.054a11.433,11.433,0,0,0,2.3,6.352,5.744,5.744,0,0,0-2.359,4.628,11.56,11.56,0,0,0,11.549,11.548H106.4a8.564,8.564,0,0,0,2.887-.531v11.785a20.944,20.944,0,0,0-14.138-5.48A21.247,21.247,0,0,0,82.5,156.574a19.7,19.7,0,0,0-7.85,15.694,28.69,28.69,0,0,0,3.017,12.781L78.63,187h78.645l.964-1.943a28.708,28.708,0,0,0,3.02-12.79,19.707,19.707,0,0,0-7.847-15.694,21.255,21.255,0,0,0-12.66-4.218,20.938,20.938,0,0,0-14.138,5.48V146.051a8.564,8.564,0,0,0,2.887.531h20.21a11.56,11.56,0,0,0,11.549-11.548A5.754,5.754,0,0,0,158.9,130.4a11.433,11.433,0,0,0,2.359-6.918,5.754,5.754,0,0,0-2.359-4.631,11.433,11.433,0,0,0,2.359-6.918,5.671,5.671,0,0,0-.084-.834l.346.115a13.986,13.986,0,0,0,16.936-7.013l.661-1.319a22.4,22.4,0,0,0,2.35-9.963,12.634,12.634,0,0,0-2.359-7.342l7.252-14.5a8.285,8.285,0,0,0-1.573-9.6l5.081-20.32A22.44,22.44,0,0,0,195.9,25.816Zm-23.943-3.031,2.76,2.763a4.263,4.263,0,0,0,7.195-2.177l1.363-6.814a3.459,3.459,0,0,1,6.851.676v8.583a16.725,16.725,0,0,1-2.509,8.817,9.572,9.572,0,0,0-7.443-3.537,9.689,9.689,0,0,0-4.313,1.019L173.8,33.15l-1.822-2.731a12.191,12.191,0,0,1-2.056-6.788A1.241,1.241,0,0,1,171.962,22.785Zm7.512,36.15-6.355-1.27,2.362-18.9,2.965-1.484a3.955,3.955,0,0,1,5.2,1.732l.543,1.083Zm-23.989,53a5.78,5.78,0,0,1-5.774,5.774H129.5a2.887,2.887,0,1,1,0-5.774Zm0,11.549a5.78,5.78,0,0,1-5.774,5.774H129.5a2.887,2.887,0,1,1,0-5.774Zm-40.42,28.871h5.774v13.751l-1.291,2.581a1.847,1.847,0,0,1-3.19,0l-1.293-2.581Zm0-5.774v-5.774h5.774v5.774Zm-34.646-23.1H106.4a2.887,2.887,0,1,1,0,5.774H86.194A5.78,5.78,0,0,1,80.42,123.485Zm25.984-23.1a2.887,2.887,0,1,1,0,5.774H86.194a5.78,5.78,0,0,1-5.774-5.774ZM80.42,111.937H106.4a2.887,2.887,0,1,1,0,5.774H86.194A5.78,5.78,0,0,1,80.42,111.937Zm40.42,5.774h-5.774V106.162h5.774Zm-5.774,5.774h5.774v11.548h-5.774Zm5.774-23.1h-5.774V88.84h5.774Zm28.871,5.774H129.5a2.887,2.887,0,1,1,0-5.774h25.984A5.78,5.78,0,0,1,149.711,106.162Zm1.527-15.72a9.451,9.451,0,0,1,3.407,4.172H129.5a8.564,8.564,0,0,0-2.887.531V88.84h19.335A9.5,9.5,0,0,1,151.238,90.442ZM98.71,70.42l-1.112-8.9-3.88-3.877a25.7,25.7,0,0,1,18.169-43.864h12.129a25.694,25.694,0,0,1,18.172,43.861l-3.88,3.877-1.112,8.9a14.461,14.461,0,0,1-14.326,12.648h-9.834A14.461,14.461,0,0,1,98.71,70.42ZM84.667,90.442a9.5,9.5,0,0,1,5.289-1.6h19.335v6.305a8.564,8.564,0,0,0-2.887-.531H81.26a9.432,9.432,0,0,1,3.407-4.172ZM61.954,94.7l.661-1.319A8.243,8.243,0,0,1,72.4,89.2l4.218,1.68a15.257,15.257,0,0,0-1.975,7.495v2.012A11.433,11.433,0,0,0,77,107.306a5.774,5.774,0,0,0-1.556,1.744H67.179a6.969,6.969,0,0,1-6.97-6.97A16.591,16.591,0,0,1,61.954,94.7Zm-7.244,31.81L61.3,113.325a12.623,12.623,0,0,0,5.878,1.5h5.682l-8.474,16.947-7.879-1.576a2.58,2.58,0,0,1-1.8-3.687Zm1.721,9.559,6.357,1.27-2.362,18.9-2.962,1.484a3.961,3.961,0,0,1-5.2-1.729l-.543-1.086Zm7.512,36.15-2.763-2.763a4.264,4.264,0,0,0-7.195,2.177l-1.363,6.817a3.458,3.458,0,0,1-6.848-.678v-8.586a16.914,16.914,0,0,1,2.518-8.8,9.571,9.571,0,0,0,7.434,3.525,9.707,9.707,0,0,0,4.313-1.019l2.067-1.034,1.819,2.731a12.171,12.171,0,0,1,2.059,6.788,1.242,1.242,0,0,1-2.041.846ZM106.4,140.808H86.194a5.78,5.78,0,0,1-5.774-5.774H106.4a2.887,2.887,0,1,1,0,5.774Zm34.348,17.323a15.407,15.407,0,0,1,9.2,3.069,13.893,13.893,0,0,1,5.537,11.069,22.958,22.958,0,0,1-1.833,8.959h-5.269a23.507,23.507,0,0,0,1.328-7.726,9.6,9.6,0,0,0-18.706-3.034l-1.357,4.071,5.48,1.828,1.354-4.071a3.825,3.825,0,0,1,7.455,1.207,17.715,17.715,0,0,1-1.8,7.726H93.761a17.762,17.762,0,0,1-1.793-7.726,3.824,3.824,0,0,1,7.452-1.207l1.357,4.071,5.48-1.828-1.36-4.071a9.6,9.6,0,0,0-18.7,3.034,23.52,23.52,0,0,0,1.328,7.726H82.253a22.978,22.978,0,0,1-1.833-8.959,13.9,13.9,0,0,1,5.54-11.075,15.418,15.418,0,0,1,9.193-3.063,15.235,15.235,0,0,1,13.7,8.471l2.339,4.677a7.56,7.56,0,0,0,13.52,0l2.339-4.674a15.231,15.231,0,0,1,13.7-8.471Zm8.959-17.323H129.5a2.887,2.887,0,0,1,0-5.774h25.984A5.78,5.78,0,0,1,149.711,140.808Zm24.24-40.5-.661,1.319a8.207,8.207,0,0,1-9.937,4.117l-2.962-.987a11.5,11.5,0,0,0,.869-4.365V98.376a15.25,15.25,0,0,0-4.553-10.856,16.8,16.8,0,0,1,6.944-1.568h5.076a6.974,6.974,0,0,1,6.97,6.97A16.591,16.591,0,0,1,173.951,100.3Zm7.244-31.81L174.6,81.677a12.614,12.614,0,0,0-5.878-1.5H163.65c-.214,0-.419.046-.632.052l8.5-17,7.879,1.573a2.6,2.6,0,0,1,2.076,2.535A2.556,2.556,0,0,1,181.195,68.494Z" transform="translate(0)" fill="#fff"/>
  </g>
</svg>
