<svg xmlns="http://www.w3.org/2000/svg" width="145.81" height="183.063" viewBox="0 0 145.81 183.063">
  <g id="Grupo_331" data-name="Grupo 331" transform="translate(-52.095 0.001)">
    <path id="Trazado_6200" data-name="Trazado 6200" d="M190.84,359.8a2.681,2.681,0,0,0,1.87-3.3,7.688,7.688,0,0,0-8.44-5.832,2.682,2.682,0,0,0,.709,5.318,2.307,2.307,0,0,1,2.561,1.944,2.684,2.684,0,0,0,2.584,1.968,2.639,2.639,0,0,0,.716-.1Z" transform="translate(-83.421 -225.253)" fill="#fff"/>
    <path id="Trazado_6201" data-name="Trazado 6201" d="M301.636,359.8a2.681,2.681,0,0,1-1.87-3.3,7.688,7.688,0,0,1,8.44-5.832,2.682,2.682,0,0,1-.709,5.318,2.307,2.307,0,0,0-2.561,1.944,2.684,2.684,0,0,1-2.584,1.968,2.639,2.639,0,0,1-.716-.1Z" transform="translate(-159.055 -225.253)" fill="#fff"/>
    <path id="Trazado_6202" data-name="Trazado 6202" d="M360.6,420.952a4.541,4.541,0,0,0-4.537,4.536v5.141a4.542,4.542,0,0,0,4.537,4.537h9a4.541,4.541,0,0,0,4.536-4.537v-5.141a4.541,4.541,0,0,0-4.536-4.536Zm8.173,8.85h-7.345v-3.485h7.345Z" transform="translate(-195.284 -270.444)" fill="#fff"/>
    <path id="Trazado_6203" data-name="Trazado 6203" d="M111.766,421.965h8.523a2.682,2.682,0,1,0,0-5.365h-8.523a2.682,2.682,0,1,0,0,5.365Z" transform="translate(-36.613 -267.648)" fill="#fff"/>
    <path id="Trazado_6204" data-name="Trazado 6204" d="M111.766,446.974h6.02a2.682,2.682,0,1,0,0-5.365h-6.02a2.682,2.682,0,1,0,0,5.365Z" transform="translate(-36.613 -283.715)" fill="#fff"/>
    <path id="Trazado_6205" data-name="Trazado 6205" d="M84.784,192.565a2.682,2.682,0,0,0-2.682,2.682v60.414a2.682,2.682,0,0,0,2.682,2.682H203.772a2.682,2.682,0,0,0,2.682-2.682V136.56a2.682,2.682,0,0,0-2.682-2.682H84.784A2.682,2.682,0,0,0,82.1,136.56v47.962a2.682,2.682,0,0,0,5.365,0v-45.28H201.089V252.979h-31.7q-.053-.332-.1-.655a15.962,15.962,0,0,1,7.8-15.9l.165-.1a19.417,19.417,0,0,0,9.2-14.978,2.682,2.682,0,0,0-5.346-.442,14.037,14.037,0,0,1-6.638,10.834l-.136.082a21.315,21.315,0,0,0-10.367,21.154h-9.716c-.24-9.543-.828-32.87-1.061-42.113l6.352-4.016a13.736,13.736,0,0,1,5.372-2.026l.179-.025a13.979,13.979,0,0,1,14.114,7.046,2.682,2.682,0,1,0,4.664-2.65,19.319,19.319,0,0,0-19.519-9.709l-.211.03a19.063,19.063,0,0,0-7.466,2.8l-3.643,2.3c-.067-2.659-.476-18.9-.537-21.328a24.532,24.532,0,0,1,13.781,6.942l4.293,4.292a2.682,2.682,0,0,0,3.793-3.793l-4.292-4.292a29.882,29.882,0,0,0-17.711-8.576c-.04-1.584-.171-6.774-.213-8.443a77.782,77.782,0,0,1,8.409,0,24.52,24.52,0,0,1,15.99,7.166l4.293,4.293a2.682,2.682,0,1,0,3.794-3.793l-4.293-4.293a29.876,29.876,0,0,0-19.486-8.728,83.112,83.112,0,0,0-8.842-.009c-.025-1-.2-8-.22-8.713a85.075,85.075,0,0,1,18.633-1.141,24.519,24.519,0,0,1,15.99,7.166l4.293,4.293a2.682,2.682,0,0,0,3.794-3.793l-4.293-4.293a29.877,29.877,0,0,0-19.486-8.728,89.9,89.9,0,0,0-19.071,1.084,7.386,7.386,0,0,0-14.748,0,89.875,89.875,0,0,0-19.07-1.084,29.88,29.88,0,0,0-19.486,8.728l-4.293,4.293a2.682,2.682,0,0,0,3.794,3.793l4.293-4.293a24.516,24.516,0,0,1,15.99-7.166,85.049,85.049,0,0,1,18.632,1.141l-.22,8.713a83.02,83.02,0,0,0-8.842.009,29.876,29.876,0,0,0-19.486,8.729l-4.293,4.293a2.682,2.682,0,0,0,3.794,3.792l4.292-4.292A24.521,24.521,0,0,1,128,169.421a77.87,77.87,0,0,1,8.409,0c-.044,1.737-.173,6.857-.213,8.443a29.88,29.88,0,0,0-17.71,8.576l-4.293,4.292a2.682,2.682,0,0,0,3.793,3.793l4.293-4.293a24.534,24.534,0,0,1,13.78-6.942c0,.042-.571,22.655-.538,21.328l-3.643-2.3a19.1,19.1,0,0,0-7.494-2.8l-.185-.026a19.167,19.167,0,0,0-14.335,3.78A19.478,19.478,0,0,0,102.3,216.3c-.079.6-.144,1.2-.194,1.786a19.535,19.535,0,0,0,9.191,18.243l.175.105a15.961,15.961,0,0,1,7.793,15.895q-.046.323-.1.655h-31.7V195.247a2.682,2.682,0,0,0-2.682-2.682Zm63.4,32.512a11.581,11.581,0,0,1-7.81,0l.2-7.914a15.172,15.172,0,0,0,7.411,0Zm-7.949,5.551a16.615,16.615,0,0,0,8.089,0l.2,7.927a13.005,13.005,0,0,1-8.489,0Zm1.018-40.405a12.819,12.819,0,0,0,6.053,0l.2,7.91a8.765,8.765,0,0,1-6.452,0Zm5.574-19.028a6.47,6.47,0,0,1-5.094,0l.2-7.885a10.317,10.317,0,0,0,4.7,0Zm-2.547,5.887a11.659,11.659,0,0,0,2.687-.316l.2,7.9a7.58,7.58,0,0,1-5.773,0l.2-7.9a11.669,11.669,0,0,0,2.688.316Zm0,27.035a13.942,13.942,0,0,0,3.366-.417c.05,1.96.151,5.963.2,7.9a10.218,10.218,0,0,1-7.131,0c.049-1.95.151-5.96.2-7.9a13.931,13.931,0,0,0,3.366.417Zm-4.608,48.861.224-8.882a18.11,18.11,0,0,0,8.768,0l.224,8.882Zm4.608-104.649a2.009,2.009,0,0,1,2.02,1.97l.188,7.43a5.273,5.273,0,0,1-4.416,0l.187-7.429a2.01,2.01,0,0,1,2.02-1.97Zm-30.06,83.493-.132-.08a14.135,14.135,0,0,1-6.637-13.209c.042-.5.1-1.02.167-1.534a14.152,14.152,0,0,1,5.5-9.466A13.839,13.839,0,0,1,123.46,204.8l.179.026a13.737,13.737,0,0,1,5.374,2.026l6.352,4.016c-.161,6.376-.951,37.753-1.061,42.113h-9.716A21.316,21.316,0,0,0,114.218,231.823Z" transform="translate(-19.278 -86.011)" fill="#fff"/>
    <path id="Trazado_6206" data-name="Trazado 6206" d="M195.222,66.452a2.682,2.682,0,0,0,2.682-2.682V44.052a6.922,6.922,0,0,0-6.915-6.915H180.662l-.252-1.375a18.317,18.317,0,0,0-15.926-14.813l-10.948-1.2A12.9,12.9,0,0,1,142.5,10.183l-2.1-8.169a2.682,2.682,0,0,0-5.2,1.334l2.1,8.169a18.292,18.292,0,0,0,15.652,13.567l10.948,1.2A12.919,12.919,0,0,1,175.134,36.73l.075.408H74.791l.075-.408A12.919,12.919,0,0,1,86.1,26.282l10.948-1.2A18.292,18.292,0,0,0,112.7,11.517l2.1-8.169a2.682,2.682,0,0,0-5.2-1.334l-2.1,8.168a12.9,12.9,0,0,1-11.039,9.569l-10.948,1.2A18.317,18.317,0,0,0,69.59,35.763l-.252,1.375H59.01A6.922,6.922,0,0,0,52.1,44.052V176.147a6.923,6.923,0,0,0,6.915,6.915H190.99a6.923,6.923,0,0,0,6.915-6.915V74.494a2.682,2.682,0,1,0-5.365,0V176.147a1.552,1.552,0,0,1-1.55,1.55H59.01a1.552,1.552,0,0,1-1.55-1.55V44.052a1.552,1.552,0,0,1,1.55-1.55H190.99a1.552,1.552,0,0,1,1.55,1.55V63.769A2.682,2.682,0,0,0,195.222,66.452Z" transform="translate(0 0)" fill="#fff"/>
  </g>
</svg>
