<svg xmlns="http://www.w3.org/2000/svg" width="135.135" height="149.503" viewBox="0 0 135.135 149.503">
  <g id="Grupo_334" data-name="Grupo 334" transform="translate(105.899 0.75)">
    <path id="Trazado_6216" data-name="Trazado 6216" d="M45.957,97.945A30.927,30.927,0,0,0,44.6,88.861a65.856,65.856,0,0,0-3.022-8.1c-3.967-9.523-9.957-23.9-9.987-44.92L36.358,2.475A2.168,2.168,0,0,0,34.212,0h-86.2a2.168,2.168,0,0,0-1.638.748,2.169,2.169,0,0,0-.508,1.727l4.767,33.369c-.029,21.015-6.019,35.4-9.986,44.919a65.906,65.906,0,0,0-3.022,8.1,30.914,30.914,0,0,0-1.359,9.085,260.753,260.753,0,0,0,2.487,33.649,2.177,2.177,0,0,0,.047.345c1.155,8.514,2.273,14.2,2.3,14.318A2.168,2.168,0,0,0-56.777,148h40.708a2.086,2.086,0,0,0,.213-.011l.041-.006c.055-.007.109-.014.163-.025l.072-.017c.042-.01.084-.02.124-.032l.085-.028c.035-.012.07-.024.1-.038l.089-.038.093-.045.088-.047c.029-.017.058-.035.087-.053l.082-.054c.029-.02.057-.042.085-.063s.049-.038.072-.057.058-.052.086-.078.04-.037.059-.056.062-.066.091-.1c.014-.016.029-.031.042-.047.038-.047.074-.1.108-.145l.012-.016q.057-.085.106-.175c.007-.013.012-.026.019-.039.024-.047.048-.094.069-.143.012-.027.021-.055.032-.082s.027-.071.039-.108.019-.067.028-.1.018-.065.025-.1.013-.071.019-.107.01-.047.013-.072c.98-7.323,1.942-21.547,2.282-26.853h5.5c.34,5.306,1.3,19.53,2.282,26.853,0,.025.009.048.013.072s.012.072.019.107.016.065.025.1.017.068.028.1.026.072.04.108.02.055.031.082c.021.049.045.1.07.145.006.012.011.025.018.036q.049.091.106.175l.01.014q.052.076.11.147c.013.016.027.03.04.045.03.035.061.07.094.1s.038.036.058.055.058.054.088.08l.071.056c.028.022.057.044.086.064s.053.036.08.053.058.036.088.053l.087.047c.031.016.062.031.094.045l.088.038c.034.014.07.026.1.038l.084.028c.041.012.083.022.125.032l.072.017c.054.011.108.018.163.025l.041.006c.071.007.142.011.213.011H39a2.168,2.168,0,0,0,2.126-1.745c.023-.117,1.142-5.8,2.3-14.319a2.182,2.182,0,0,0,.046-.342,260.467,260.467,0,0,0,2.489-33.651Zm-102.545,35.69h39.557c-.3,3.595-.623,7.169-.956,10.031h-36.99C-55.332,141.7-55.937,138.18-56.588,133.635ZM.69,114.933H-18.466a2.168,2.168,0,0,0-2.168,2.168,2.168,2.168,0,0,0,2.168,2.168h2.479c-.147,2.267-.4,5.972-.7,10.031H-57.177A252.306,252.306,0,0,1-59.4,97.945a26.586,26.586,0,0,1,1.181-7.857c.011-.035.021-.071.03-.106a35.822,35.822,0,0,1,1.472-4.236h9.887a2.168,2.168,0,0,0,2.168-2.168,2.168,2.168,0,0,0-2.168-2.168h-8.1c4.1-9.863,9.9-24.5,9.9-45.721a2.175,2.175,0,0,0-.022-.306L-49.488,4.336h81.2L27.277,35.383a2.176,2.176,0,0,0-.022.306c0,21.224,5.8,35.857,9.9,45.721H12.069C15.492,75.167,17.006,66,17.2,64.757a2.168,2.168,0,1,0-4.284-.667c-.553,3.553-2.665,13.2-6.01,17.321H-24.681c-3.338-4.119-5.454-13.765-6.01-17.321a2.169,2.169,0,0,0-2.476-1.809,2.168,2.168,0,0,0-1.809,2.476c.193,1.239,1.707,10.411,5.13,16.654h-8.312a2.168,2.168,0,0,0-2.168,2.168,2.168,2.168,0,0,0,2.168,2.168H38.939a35.838,35.838,0,0,1,1.472,4.235c.009.036.019.071.03.107a26.581,26.581,0,0,1,1.181,7.857A252.346,252.346,0,0,1,39.4,129.3H-1.087c-.307-4.059-.556-7.764-.7-10.031H.69a2.168,2.168,0,1,0,0-4.336ZM.211,143.666c-.332-2.861-.66-6.436-.956-10.031H38.811c-.65,4.544-1.255,8.066-1.611,10.031Z" transform="translate(-29.443)" fill="#fff" stroke="#fff" stroke-width="1.5"/>
    <path id="Trazado_6217" data-name="Trazado 6217" d="M120.668,213.814a2.168,2.168,0,0,0,2.168-2.168v-2.395a2.168,2.168,0,1,0-4.336,0v2.395A2.168,2.168,0,0,0,120.668,213.814Z" transform="translate(-159 -147.222)" fill="#fff" stroke="#fff" stroke-width="1.5"/>
    <path id="Trazado_6218" data-name="Trazado 6218" d="M54.4,108.526H63.98a6.965,6.965,0,0,0,6.957-6.957,2.168,2.168,0,0,0-4.336,0,2.624,2.624,0,0,1-2.621,2.621H54.4a2.168,2.168,0,0,0,0,4.336Z" transform="translate(-111.889 -70.667)" fill="#fff" stroke="#fff" stroke-width="1.5"/>
    <path id="Trazado_6219" data-name="Trazado 6219" d="M54.4,174.792H63.98a6.965,6.965,0,0,0,6.957-6.957,2.168,2.168,0,0,0-4.336,0,2.624,2.624,0,0,1-2.621,2.621H54.4a2.168,2.168,0,0,0,0,4.336Z" transform="translate(-111.889 -117.778)" fill="#fff" stroke="#fff" stroke-width="1.5"/>
    <path id="Trazado_6220" data-name="Trazado 6220" d="M142.025,108.526H151.6a2.168,2.168,0,1,0,0-4.336h-9.578a2.624,2.624,0,0,1-2.621-2.621,2.168,2.168,0,1,0-4.336,0A6.964,6.964,0,0,0,142.025,108.526Z" transform="translate(-170.778 -70.667)" fill="#fff" stroke="#fff" stroke-width="1.5"/>
    <path id="Trazado_6221" data-name="Trazado 6221" d="M54.4,42.258H63.98A6.965,6.965,0,0,0,70.936,35.3a2.168,2.168,0,0,0-4.336,0,2.624,2.624,0,0,1-2.621,2.621H54.4a2.168,2.168,0,0,0,0,4.336Z" transform="translate(-111.889 -23.555)" fill="#fff" stroke="#fff" stroke-width="1.5"/>
    <path id="Trazado_6222" data-name="Trazado 6222" d="M142.025,42.258H151.6a2.168,2.168,0,0,0,0-4.336h-9.578A2.624,2.624,0,0,1,139.4,35.3a2.168,2.168,0,0,0-4.336,0A6.965,6.965,0,0,0,142.025,42.258Z" transform="translate(-170.778 -23.555)" fill="#fff" stroke="#fff" stroke-width="1.5"/>
    <path id="Trazado_6223" data-name="Trazado 6223" d="M142.025,174.792H151.6a2.168,2.168,0,0,0,0-4.336h-9.578a2.624,2.624,0,0,1-2.621-2.621,2.168,2.168,0,1,0-4.336,0A6.964,6.964,0,0,0,142.025,174.792Z" transform="translate(-170.778 -117.778)" fill="#fff" stroke="#fff" stroke-width="1.5"/>
    <path id="Trazado_6224" data-name="Trazado 6224" d="M-78.131,91.117A2.168,2.168,0,0,0-80.3,93.285v2.394a2.168,2.168,0,0,0,2.168,2.168,2.168,2.168,0,0,0,2.168-2.168V93.285A2.168,2.168,0,0,0-78.131,91.117Z" transform="translate(-17.667 -64.778)" fill="#fff" stroke="#fff" stroke-width="1.5"/>
    <path id="Trazado_6225" data-name="Trazado 6225" d="M-78.131,132.533A2.168,2.168,0,0,0-80.3,134.7V137.1a2.168,2.168,0,0,0,2.168,2.168,2.168,2.168,0,0,0,2.168-2.168V134.7A2.168,2.168,0,0,0-78.131,132.533Z" transform="translate(-17.667 -94.222)" fill="#fff" stroke="#fff" stroke-width="1.5"/>
    <path id="Trazado_6226" data-name="Trazado 6226" d="M-61.565,120.3h2.394A2.168,2.168,0,0,0-57,118.135a2.168,2.168,0,0,0-2.168-2.168h-2.394a2.168,2.168,0,0,0-2.168,2.168A2.168,2.168,0,0,0-61.565,120.3Z" transform="translate(-29.444 -82.445)" fill="#fff" stroke="#fff" stroke-width="1.5"/>
    <path id="Trazado_6227" data-name="Trazado 6227" d="M-100.587,115.967h-2.394a2.168,2.168,0,0,0-2.168,2.168,2.168,2.168,0,0,0,2.168,2.168h2.394a2.168,2.168,0,0,0,2.168-2.168A2.168,2.168,0,0,0-100.587,115.967Z" transform="translate(0 -82.445)" fill="#fff" stroke="#fff" stroke-width="1.5"/>
    <path id="Trazado_6228" data-name="Trazado 6228" d="M319.468,91.117a2.168,2.168,0,0,0-2.168,2.168v2.394a2.168,2.168,0,0,0,4.336,0V93.285A2.168,2.168,0,0,0,319.468,91.117Z" transform="translate(-300.333 -64.778)" fill="#fff" stroke="#fff" stroke-width="1.5"/>
    <path id="Trazado_6229" data-name="Trazado 6229" d="M319.468,132.533A2.168,2.168,0,0,0,317.3,134.7V137.1a2.168,2.168,0,0,0,4.336,0V134.7A2.168,2.168,0,0,0,319.468,132.533Z" transform="translate(-300.333 -94.222)" fill="#fff" stroke="#fff" stroke-width="1.5"/>
    <path id="Trazado_6230" data-name="Trazado 6230" d="M338.429,115.967h-2.394a2.168,2.168,0,1,0,0,4.336h2.394a2.168,2.168,0,1,0,0-4.336Z" transform="translate(-312.111 -82.445)" fill="#fff" stroke="#fff" stroke-width="1.5"/>
    <path id="Trazado_6231" data-name="Trazado 6231" d="M297.013,115.967h-2.394a2.168,2.168,0,1,0,0,4.336h2.394a2.168,2.168,0,1,0,0-4.336Z" transform="translate(-282.667 -82.445)" fill="#fff" stroke="#fff" stroke-width="1.5"/>
  </g>
</svg>
