<svg xmlns="http://www.w3.org/2000/svg" width="169.6" height="169.6" viewBox="0 0 169.6 169.6">
  <g id="Grupo_332" data-name="Grupo 332" transform="translate(-8 -8)">
    <path id="Trazado_6207" data-name="Trazado 6207" d="M40,312h5.471v5.471H40Z" transform="translate(-21.058 -200.052)" fill="#fff"/>
    <path id="Trazado_6208" data-name="Trazado 6208" d="M72,312h5.471v5.471H72Z" transform="translate(-42.116 -200.052)" fill="#fff"/>
    <path id="Trazado_6209" data-name="Trazado 6209" d="M104,312h5.471v5.471H104Z" transform="translate(-63.174 -200.052)" fill="#fff"/>
    <path id="Trazado_6210" data-name="Trazado 6210" d="M147.509,8H87.329a30.126,30.126,0,0,0-30.09,30.09V64.157a28.412,28.412,0,0,0-3.958,1.578,23.354,23.354,0,0,1-10.365,2.446H8V95.535h95.742a13.688,13.688,0,0,0,9.87-4.21A19.166,19.166,0,0,0,139.3,89.766v11.24H16.206A8.216,8.216,0,0,0,8,109.213v10.942a8.216,8.216,0,0,0,8.206,8.206H57.239V139.3H54.5A8.171,8.171,0,0,0,48.43,152.98a8.081,8.081,0,0,0,0,10.942A8.171,8.171,0,0,0,54.5,177.6H177.6V38.09A30.126,30.126,0,0,0,147.509,8ZM62.71,38.09A24.646,24.646,0,0,1,87.329,13.471H131.1A24.646,24.646,0,0,1,155.716,38.09V172.129H144.774V38.09A13.693,13.693,0,0,0,131.1,24.413H87.329A13.693,13.693,0,0,0,73.651,38.09V62.71H66.091a27.94,27.94,0,0,0-3.381.208ZM51.768,158.451a2.736,2.736,0,0,1,2.735-2.735h84.8v5.471H54.5A2.736,2.736,0,0,1,51.768,158.451ZM92.8,62.816c-.788-.066-1.576-.107-2.372-.107H79.122V38.09a8.216,8.216,0,0,1,8.206-8.206h8.278A13.536,13.536,0,0,0,92.8,38.09Zm10.942,27.248H68.181a2.735,2.735,0,1,1,0-5.471H92.8V79.122H68.181a8.216,8.216,0,0,0-8.206,8.206,8.114,8.114,0,0,0,.5,2.735H13.471V73.651H42.916a28.841,28.841,0,0,0,12.813-3.023,23.3,23.3,0,0,1,10.362-2.448H90.425a23.1,23.1,0,0,1,12.849,3.89l2.374,1.581h6.434l.643-1.825a13.668,13.668,0,0,1,15.636-8.844v6.188a8.22,8.22,0,0,1-5,7.558L112.9,81.355a13.6,13.6,0,0,1-.76-2.686l-5.4.908a19.111,19.111,0,0,0,3.132,7.73,8.208,8.208,0,0,1-6.133,2.757Zm32.5-5.058a13.622,13.622,0,0,1-20.308.985l9.61-4.248a13.666,13.666,0,0,0,8.286-12.572V65.4a13.531,13.531,0,0,1,5.162,8.012,13.814,13.814,0,0,1-2.749,11.593Zm-6.694-27.374a19.122,19.122,0,0,0-21.233,10.548h-1.012l-.99-.662a28.589,28.589,0,0,0-8.042-3.7V38.09a8.216,8.216,0,0,1,8.206-8.206H131.1a8.216,8.216,0,0,1,8.206,8.206V62.978a18.937,18.937,0,0,0-9.755-5.345ZM13.471,120.155V109.213a2.736,2.736,0,0,1,2.735-2.735H139.3v10.942H94.89L83.948,122.89H16.206A2.736,2.736,0,0,1,13.471,120.155Zm49.239,8.206H85.239l10.942-5.471H139.3V139.3H62.71ZM54.5,144.774h84.8v5.471H54.5a2.735,2.735,0,1,1,0-5.471Zm-2.735,24.619a2.736,2.736,0,0,1,2.735-2.735h84.8v5.471H54.5A2.736,2.736,0,0,1,51.768,169.393Zm120.361,2.735H161.187V38.09A30.049,30.049,0,0,0,148.4,13.517,24.626,24.626,0,0,1,172.129,38.09Z" fill="#fff"/>
  </g>
</svg>
